<?xml version="1.0" encoding="UTF-8" standalone="no"?>
<!-- Generator: Adobe Illustrator 21.0.2, SVG Export Plug-In . SVG Version: 6.00 Build 0)  -->

<svg
   version="1.1"
   viewBox="0 0 542.74719 679.18903"
   xml:space="preserve"
   sodipodi:docname="cop-sus.svg"
   inkscape:version="1.2.1 (9c6d41e410, 2022-07-14)"
   id="svg1540"
   xmlns:inkscape="http://www.inkscape.org/namespaces/inkscape"
   xmlns:sodipodi="http://sodipodi.sourceforge.net/DTD/sodipodi-0.dtd"
   xmlns="http://www.w3.org/2000/svg"
   xmlns:svg="http://www.w3.org/2000/svg"><defs
     id="defs11" /><sodipodi:namedview
     id="namedview9"
     pagecolor="#00507a"
     bordercolor="#ffffff"
     borderopacity="1"
     inkscape:showpageshadow="0"
     inkscape:pageopacity="0"
     inkscape:pagecheckerboard="1"
     inkscape:deskcolor="#505050"
     showgrid="false"
     inkscape:zoom="0.89001173"
     inkscape:cx="-14.044759"
     inkscape:cy="402.24189"
     inkscape:window-width="3440"
     inkscape:window-height="1328"
     inkscape:window-x="0"
     inkscape:window-y="34"
     inkscape:window-maximized="1" /><g
     id="body"><path
       d="m 466.55288,432.24804 c -2.1,30.1 -6.6,60 -10.7,89.9 -3.9,27.9 -8.4,55.7 -13.2,83.4 -1,5.6 -3.3,8.7 -8.6,10.5 -13.1,4.5 -26.4,4.3 -39.9,2.8 -7.3,-0.8 -14.5,-2.4 -21.5,-4.9 -4.1,-1.5 -6.7,-3.9 -7.8,-8.4 -3.8,-15.4 -3.9,-30.9 -1.9,-46.5 1,-7.3 1.2,-7.3 8.5,-8.7 10.8,-2 21,-5.3 29.5,-12.6 6.5,-5.7 10.6,-12.8 13,-21.9 -27.2,9.7 -53.1,4.2 -79,-2.8 -12.9,-3.5 -25.7,-7.7 -38.59999,-11.4 -6.8,-2 -13.8,-3.2 -20.9,-0.7 -9.8,3.5 -14,11.4 -16.3,20.8 -3.4,13.8 -4.3,28 -5.1,42.1 -1,18.5 -1.7,37 -1.7,55.5 0,1.9 -0.7,3.3 -1.9,4.6 -28.7,30.6 -65.9,21.6 -86.8,-3.9 -5.5,-6.7 -6.1,-15.5 -7.6,-23.7 -5.6,-31.2 -7.9,-62.8 -9.7,-94.4 -3.2,-53.6 -4,-107.3 -3.2,-160.9 0.6,-40.5 2.2,-81 5.7,-121.3 2.5,-28.2 5.3,-56.4 11.4,-84.1 3.2,-14.5 7.6,-28.7 13.6,-42.30001 12.7,-28.400005 34.5,-44.100005 64.9,-48.700005 31.6,-4.7 63.49999,-5.1 95.19999,-3.1 33.6,2.1 61.7,17 84,42.500005 0.9,1.1 2.2,1.9 2.3,3.8 -6.5,-0.6 -12.9,-1.4 -19.3,-1.7 -30.9,-1.7 -61.1,2.9 -90.8,11.1 -13.39999,3.70001 -26.29999,8.60001 -39.39999,13.20001 -9.6,3.4 -16.6,9.6 -22.6,17.5 -12.7,16.7 -19,35.8 -20.2,56.7 -1.3,22.7 2.7,44.6 10.5,65.8 9.8,26.2 29.9,41.8 54.9,52.1 18.39999,7.5 37.59999,11 57.39999,12.2 38.6,2.3 76.1,-3.1 112.3,-16.6 2.7,-1 3.5,-0.6 3.6,2.3 1.6,43.9 3.1,87.9 -0.1,131.8 z"
       id="path2-7"
       sodipodi:nodetypes="ccccccccccccccccsccccccccccccccccccccccc"
       style="fill:#dd8020;fill-opacity:1" /><path
       d="m 535.26967,162.09773 c -13.5,-26.8 -36.6,-37.8 -55.6,-58.8 -17.9,-19.799998 -29.9,-44.299998 -50.2,-61.999998 -25.5,-22.3 -57.4,-35.0000004 -91.1,-37.8000004 -36.2,-3.10000004 -72.5,-2.1 -108.5,4 -26.9,4.6000004 -50.8,15.5000004 -69.3,36.2000004 -15.4,17.3 -24.7,37.8 -31.4,59.699998 -4.1,13.6 -7.3,27.4 -9.8,41.4 -1.5,8.3 0.1,29.6 -9.4,33.4 -9.8,3.9 -29.300004,-1.5 -41.000004,1.1 -25.9,5.7 -43.5,20.2 -50.1,46.8 -4.899999,19.8 -7.799999,39.9 -10.0999994,60.2 -3.3,30 -5.2,60.2 -5.6,90.4 -0.4,33.4 0.4,66.7 7.1000004,99.7 6.099999,30.4 24.199999,49.7 52.999999,59.7 14,4.9 28.6,7.1 43.400004,7 3.3,0 4.3,0.8 4.6,4.2 1.8,19.6 3.8,39.1 7.7,58.4 2.2,11.2 4.5,22.4 10.5,32.4 30.5,50.1 101.2,56.3 143.9,18.6 13.5,-11.9 18.2,-29.4 19.8,-48.2 1.8,-21.1 -0.5,-43.9 1.2,-62.1 0.5,-5.1 0.4,-5.1 5.6,-3.6 17.3,5 23.3,3.4 23.9,21.9 0.4,12 0,23.9 1.7,35.8 3.5,24.1 14.8,44.1 39.3,51.4 35.6,10.6 105.7,15 114.8,-34.4 2.6,-14.1 5,-28.1 7.3,-42.2 4.4,-26.9 8.1,-54 11.6,-81 4,-30.7 7.5,-61.4 8.1,-92.4 0.7,-38.6 0.1,-77.2 -2.3,-115.8 -0.4,-6.4 1.2,-10.3 6.4,-14.4 35.6,-28 44.7,-69.3 24.5,-109.6 z m -424.9,57.8 c -1.6,22.5 -3,45 -3.9,67.5 -1,24.3 -1.5,48.6 -1.6,72.9 -0.3,47 0.6,94 3.1,140.9 0.1,1.6 1.1,3.7 -2,3.6 -16.100004,-0.7 -31.500004,-3.3 -45.100004,-13 -8.7,-6.2 -11.1,-15.5 -13,-25 -4.8,-23 -5.9,-46.4 -6.1,-69.8 0,-3.9 0,-7.8 0,-11.7 -0.1,-28.9 1.7,-57.8 4.5,-86.6 2.2,-21.7 4.9,-43.3 10.3,-64.5 2.1,-8.1 7.2,-13.1 14.8,-15.6 11.9,-4 24.2,-3.3 36.500004,-2.5 2.4,0.1 2.6,1.6 2.5,3.8 z m 356.3,212.4 c -2.1,30.1 -6.6,60 -10.7,89.9 -3.9,27.9 -8.4,55.7 -13.2,83.4 -1,5.6 -3.3,8.7 -8.6,10.5 -13.1,4.5 -26.4,4.3 -39.9,2.8 -7.3,-0.8 -14.5,-2.4 -21.5,-4.9 -4.1,-1.5 -6.7,-3.9 -7.8,-8.4 -3.8,-15.4 -3.9,-30.9 -1.9,-46.5 1,-7.3 1.2,-7.3 8.5,-8.7 10.8,-2 21,-5.3 29.5,-12.6 6.5,-5.7 10.6,-12.8 13,-21.9 -27.2,9.7 -53.1,4.2 -79,-2.8 -12.9,-3.5 -25.7,-7.7 -38.6,-11.4 -6.8,-2 -13.8,-3.2 -20.9,-0.7 -9.8,3.5 -14,11.4 -16.3,20.8 -3.4,13.8 -4.3,28 -5.1,42.1 -1,18.5 -1.7,37 -1.7,55.5 0,1.9 -0.7,3.3 -1.9,4.6 -28.7,30.6 -65.9,21.6 -86.8,-3.9 -5.5,-6.7 -6.1,-15.5 -7.6,-23.7 -5.6,-31.2 -7.9,-62.8 -9.7,-94.4 -3.2,-53.6 -4,-107.3 -3.2,-160.9 0.6,-40.5 2.2,-81 5.7,-121.3 2.5,-28.2 5.3,-56.4 11.4,-84.1 3.2,-14.5 7.6,-28.7 13.6,-42.299998 12.7,-28.4 34.5,-44.1 64.9,-48.7 31.6,-4.7 63.5,-5.1 95.2,-3.1 33.6,2.1 61.7,17 84,42.5 0.9,1.1 2.2,1.9 2.3,3.8 -6.5,-0.6 -12.9,-1.4 -19.3,-1.7 -30.9,-1.7 -61.1,2.9 -90.8,11.1 -13.4,3.699998 -26.3,8.599998 -39.4,13.199998 -9.6,3.4 -16.6,9.6 -22.6,17.5 -12.7,16.7 -19,35.8 -20.2,56.7 -1.3,22.7 2.7,44.6 10.5,65.8 9.8,26.2 29.9,41.8 54.9,52.1 18.4,7.5 37.6,11 57.4,12.2 38.6,2.3 76.1,-3.1 112.3,-16.6 2.7,-1 3.5,-0.6 3.6,2.3 1.6,43.9 3.1,87.9 -0.1,131.8 z m 27.2,-197 c -13.3,13.5 -29.8,21.7 -47.3,28 -25.6,9.2 -52.2,13.6 -86.3,13.5 -14.6,-0.1 -35.5,-2.6 -55.4,-11.3 -11.1,-4.9 -21.8,-11 -27,-22.1 -11.5,-24.4 -15.8,-50 -7.4,-76.5 0.8,-2.6 2,-5.1 3.2,-7.5 3.5,-7.2 8.5,-12.3 16.6,-15.2 30.5,-11 61.4,-19.3 94,-19.9 30.7,-0.6 59.9,4.8 85.9,21.9 16.8,11 29.7,25.3 35,45.2 4.7,16.7 1,31.5 -11.3,43.9 z"
       id="path2" /><path
       d="m 493.89547,235.29582 c -13.3,13.5 -29.8,21.7 -47.3,28 -25.59999,9.2 -52.19999,13.6 -86.29999,13.5 -14.6,-0.1 -35.5,-2.6 -55.4,-11.3 -11.1,-4.9 -21.8,-11 -27,-22.1 -11.5,-24.4 -15.8,-50 -7.4,-76.5 0.8,-2.6 2,-5.1 3.2,-7.5 3.5,-7.2 8.5,-12.3 16.6,-15.2 30.5,-11 61.4,-19.3 94,-19.9 30.7,-0.6 59.89999,4.8 85.89999,21.9 16.8,11 29.7,25.3 35,45.2 4.7,16.7 1,31.5 -11.3,43.9 z"
       id="path2-5"
       sodipodi:nodetypes="cccccccccccc"
       style="fill:#6162bf;fill-opacity:1" /><path
       d="m 110.28607,220.02679 c -1.6,22.5 -3,45 -3.9,67.5 -1,24.3 -1.5,48.6 -1.6,72.9 -0.3,46.99999 0.6,93.99999 3.1,140.89999 0.1,1.6 1.1,3.7 -2,3.6 -16.100004,-0.7 -31.500004,-3.3 -45.100004,-13 -8.7,-6.2 -11.1,-15.5 -13,-25 -4.8,-23 -5.9,-46.4 -6.1,-69.8 v -11.7 c -0.1,-28.89999 1.7,-57.79999 4.5,-86.59999 2.2,-21.7 4.9,-43.3 10.3,-64.5 2.1,-8.1 7.2,-13.1 14.8,-15.6 11.9,-4 24.2,-3.3 36.500004,-2.5 2.4,0.1 2.6,1.6 2.5,3.8 z"
       id="path2-9"
       sodipodi:nodetypes="cccccccccccccc"
       style="fill:#e30000;fill-opacity:1" /></g><g
     id="badge"
     transform="matrix(1.4725306,0,0,1.4725306,106.35777,239.15611)"><path
       style="opacity:1;fill:#033106;fill-opacity:0.89416105;stroke:#0d180c;stroke-width:8.535;stroke-linecap:round;stroke-linejoin:round;stroke-dasharray:52.0635, 8.535;stroke-dashoffset:0;stroke-opacity:1;paint-order:normal"
       d="M 54.66426,129.59033 C 51.503265,117.74804 46.117053,107.29975 52.817794,91.040477 56.190889,82.85572 56.104653,74.136657 51.144138,63.921428 L 63.209735,51.614589 c 12.113451,5.590969 20.995695,2.358529 29.325438,-2.382615 8.512397,3.17548 15.291507,9.389455 29.467227,2.636938 l 12.23704,13.573137 c -8.30056,18.484984 -0.95413,25.069773 0.0196,28.430577 2.1758,7.509734 5.87536,23.440934 -1.7088,33.118564 -26.36621,33.64413 -75.881314,10.10938 -77.88598,2.59914 z"
       id="path5405"
       sodipodi:nodetypes="sscccccsss" /><path
       style="fill:#181a48;fill-opacity:1;fill-rule:nonzero;stroke:none;stroke-width:0.0352778"
       d="m 92.621391,127.76649 c -1.27,0 -2.44122,-0.67733 -3.07622,-1.778 l -7.36953,-12.76704 h -14.74611 c -1.27,0 -2.44122,-0.67733 -3.07622,-1.77448 -0.635,-1.10068 -0.635,-2.45534 0,-3.55249 l 7.37306,-12.7706 -7.37306,-12.770557 c -0.635,-1.097139 -0.635,-2.451806 0,-3.552472 0.635,-1.097139 1.80622,-1.774473 3.07622,-1.774473 h 14.74611 l 7.36953,-12.770556 c 1.27,-2.197806 4.88597,-2.197806 6.15597,0 l 7.369529,12.770556 h 14.74611 c 1.27,0 2.44123,0.677334 3.07623,1.774473 0.635,1.100666 0.635,2.455333 0,3.552472 l -7.37306,12.770557 7.37306,12.7706 c 0.635,1.09715 0.635,2.45181 0,3.55249 -0.635,1.09715 -1.80623,1.77448 -3.07623,1.77448 h -14.74611 l -7.369529,12.76704 c -0.635,1.10067 -1.80975,1.778 -3.07975,1.778"
       id="path5345" /><path
       style="fill:#f3ff36;fill-opacity:1;fill-rule:nonzero;stroke:#040805;stroke-width:0.0352778;stroke-opacity:1"
       d="m 73.581981,106.11647 h 10.6433 c 1.27,0 2.44122,0.67733 3.07623,1.77801 l 5.31988,9.21459 5.32342,-9.21459 c 0.635,-1.10068 1.80622,-1.77801 3.076219,-1.77801 h 10.63978 l -5.31989,-9.21459 c -0.635,-1.100667 -0.635,-2.455334 0,-3.556001 l 5.31989,-9.214556 h -10.63978 c -1.269999,0 -2.441219,-0.677333 -3.076219,-1.778 l -5.32342,-9.214556 -5.31988,9.214556 c -0.63501,1.100667 -1.80623,1.778 -3.07623,1.778 h -10.6433 l 5.32341,9.214556 c 0.635,1.100667 0.635,2.455334 0,3.556001 z"
       id="path1344" /></g></svg>
