<?xml version="1.0" encoding="UTF-8" standalone="no"?>
<!-- Created with Inkscape (http://www.inkscape.org/) -->

<svg
   viewBox="0 0 255.04372 297.22233"
   version="1.1"
   id="svg1808"
   inkscape:version="1.2.1 (9c6d41e410, 2022-07-14)"
   sodipodi:docname="gun &amp; shield.svg"
   xmlns:inkscape="http://www.inkscape.org/namespaces/inkscape"
   xmlns:sodipodi="http://sodipodi.sourceforge.net/DTD/sodipodi-0.dtd"
   xmlns="http://www.w3.org/2000/svg"
   xmlns:svg="http://www.w3.org/2000/svg">
  <sodipodi:namedview
     id="namedview1810"
     pagecolor="#505050"
     bordercolor="#ffffff"
     borderopacity="1"
     inkscape:showpageshadow="0"
     inkscape:pageopacity="0"
     inkscape:pagecheckerboard="1"
     inkscape:deskcolor="#505050"
     inkscape:document-units="mm"
     showgrid="false"
     inkscape:zoom="2.3786088"
     inkscape:cx="-13.663449"
     inkscape:cy="110.98925"
     inkscape:window-width="3440"
     inkscape:window-height="1328"
     inkscape:window-x="0"
     inkscape:window-y="34"
     inkscape:window-maximized="1"
     inkscape:current-layer="g1637" />
  <defs
     id="defs1805" />
  <g
     inkscape:label="Layer 1"
     inkscape:groupmode="layer"
     id="layer1"
     transform="translate(47.984216,-8.2789397)">
    <g
       id="g1361"
       transform="matrix(1.4725306,0,0,1.4725306,-3.4541526,-60.08515)">
      <path
         style="opacity:1;fill:#113413;fill-opacity:0.791667;stroke:#0d180c;stroke-width:8.535;stroke-linecap:round;stroke-linejoin:round;stroke-dasharray:52.0635, 8.535;stroke-dashoffset:0;stroke-opacity:1;paint-order:normal"
         d="M 54.66426,129.59033 C 51.503265,117.74804 46.117053,107.29975 52.817794,91.040477 56.190889,82.85572 56.104653,74.136657 51.144138,63.921428 L 63.209735,51.614589 c 12.113451,5.590969 20.995695,2.358529 29.325438,-2.382615 8.512397,3.17548 15.291507,9.389455 29.467227,2.636938 l 12.23704,13.573137 c -8.30056,18.484984 -0.95413,25.069773 0.0196,28.430577 2.1758,7.509734 5.87536,23.440934 -1.7088,33.118564 -26.36621,33.64413 -75.881314,10.10938 -77.88598,2.59914 z"
         id="path5405"
         sodipodi:nodetypes="sscccccsss" />
      <path
         style="fill:#181a48;fill-opacity:1;fill-rule:nonzero;stroke:none;stroke-width:0.0352778"
         d="m 92.621391,127.76649 c -1.27,0 -2.44122,-0.67733 -3.07622,-1.778 l -7.36953,-12.76704 h -14.74611 c -1.27,0 -2.44122,-0.67733 -3.07622,-1.77448 -0.635,-1.10068 -0.635,-2.45534 0,-3.55249 l 7.37306,-12.7706 -7.37306,-12.770557 c -0.635,-1.097139 -0.635,-2.451806 0,-3.552472 0.635,-1.097139 1.80622,-1.774473 3.07622,-1.774473 h 14.74611 l 7.36953,-12.770556 c 1.27,-2.197806 4.88597,-2.197806 6.15597,0 l 7.369529,12.770556 h 14.74611 c 1.27,0 2.44123,0.677334 3.07623,1.774473 0.635,1.100666 0.635,2.455333 0,3.552472 l -7.37306,12.770557 7.37306,12.7706 c 0.635,1.09715 0.635,2.45181 0,3.55249 -0.635,1.09715 -1.80623,1.77448 -3.07623,1.77448 h -14.74611 l -7.369529,12.76704 c -0.635,1.10067 -1.80975,1.778 -3.07975,1.778"
         id="path5345" />
      <path
         style="fill:#f3ff36;fill-opacity:1;fill-rule:nonzero;stroke:#040805;stroke-width:0.0352778;stroke-opacity:1"
         d="m 73.581981,106.11647 h 10.6433 c 1.27,0 2.44122,0.67733 3.07623,1.77801 l 5.31988,9.21459 5.32342,-9.21459 c 0.635,-1.10068 1.80622,-1.77801 3.076219,-1.77801 h 10.63978 l -5.31989,-9.21459 c -0.635,-1.100667 -0.635,-2.455334 0,-3.556001 l 5.31989,-9.214556 h -10.63978 c -1.269999,0 -2.441219,-0.677333 -3.076219,-1.778 l -5.32342,-9.214556 -5.31988,9.214556 c -0.63501,1.100667 -1.80623,1.778 -3.07623,1.778 h -10.6433 l 5.32341,9.214556 c 0.635,1.100667 0.635,2.455334 0,3.556001 z"
         id="path1344" />
    </g>
    <g
       id="g1637"
       transform="matrix(0.42916667,-0.14441382,0.14441382,0.42916667,-240.38134,231.86594)">
      <rect
         style="fill:#615a4d;fill-opacity:1;stroke:#000000;stroke-width:26.035;stroke-linecap:round;stroke-linejoin:round;stroke-dasharray:none;stroke-opacity:1;paint-order:stroke fill markers"
         id="rect1462"
         width="206.88669"
         height="102.37727"
         x="454.53912"
         y="166.71327"
         rx="12.69983"
         ry="6.9784422" />
      <rect
         style="fill:#2e1a0f;fill-opacity:1;stroke:#000000;stroke-width:26.035;stroke-linecap:round;stroke-linejoin:round;stroke-dasharray:none;stroke-opacity:1;paint-order:stroke fill markers"
         id="rect1454"
         width="61.037102"
         height="161.48494"
         x="413.32654"
         y="138.47362"
         rx="12.69983"
         ry="6.9784427" />
      <rect
         style="fill:#2e1a0f;fill-opacity:1;stroke:#000000;stroke-width:26.035;stroke-linecap:round;stroke-linejoin:round;stroke-dasharray:none;stroke-opacity:1;paint-order:stroke fill markers"
         id="rect1454-3"
         width="61.037102"
         height="161.48494"
         x="643.76526"
         y="137.64508"
         rx="12.69983"
         ry="6.9784427" />
      <rect
         style="fill:#2e1a0f;fill-opacity:1;stroke:#000000;stroke-width:26.035;stroke-linecap:round;stroke-linejoin:round;stroke-dasharray:none;stroke-opacity:1;paint-order:stroke fill markers"
         id="rect1460"
         width="45.440372"
         height="440.28717"
         x="536.448"
         y="-212.85454"
         rx="12.69983"
         ry="6.9784422" />
      <rect
         style="fill:#2e1a0f;fill-opacity:1;stroke:#000000;stroke-width:26.035;stroke-linecap:round;stroke-linejoin:round;stroke-dasharray:none;stroke-opacity:1;paint-order:stroke fill markers"
         id="rect1458"
         width="79.397415"
         height="131.42969"
         x="518.43658"
         y="152.78963"
         rx="12.69983"
         ry="6.9784422" />
      <rect
         style="fill:#3e3012;fill-opacity:1;stroke:#000000;stroke-width:26.035;stroke-linecap:round;stroke-linejoin:round;stroke-dasharray:none;stroke-opacity:1;paint-order:stroke fill markers"
         id="rect1511"
         width="51.162979"
         height="39.775127"
         x="533.56042"
         y="-158.15416"
         rx="12.69983"
         ry="6.9784422" />
      <rect
         style="fill:#4a454a;fill-opacity:1;stroke:#000000;stroke-width:26.035;stroke-linecap:round;stroke-linejoin:round;stroke-dasharray:none;stroke-opacity:1;paint-order:stroke fill markers"
         id="rect1511-6"
         width="51.162979"
         height="39.775127"
         x="533.63776"
         y="57.249111"
         rx="12.69983"
         ry="6.9784422" />
    </g>
    <g
       id="g1356">
      <path
         style="fill:#35281c;fill-opacity:1;stroke:#000000;stroke-width:10;stroke-linecap:round;stroke-linejoin:round;stroke-dasharray:none;stroke-opacity:1;paint-order:stroke fill markers"
         d="m 151.20071,180.67116 c 8.68874,13.96108 7.26321,25.70846 7.61528,35.40474 l 0.76299,21.01352 c 0.0568,5.30394 -0.1523,8.66703 5.00391,8.66703 h 31.07741 c 5.64635,0 6.50322,-1.70531 6.37808,-6.37808 l -1.03208,-38.53725 c -0.69775,-26.05364 -25.065,-45.54342 -40.36415,-44.62953 z"
         id="path2162"
         sodipodi:nodetypes="cscsssscc" />
      <path
         d="m 152.84056,152.26682 c -0.48683,0 -0.98072,-0.10231 -1.45344,-0.31397 -1.78858,-0.80434 -2.58939,-2.90689 -1.78506,-4.69547 l 0.70909,-1.58045 c 3.8735,-8.61836 11.69811,-14.98247 20.92678,-17.01094 1.91558,-0.42334 3.81,0.79022 4.23333,2.7058 0.42333,1.91558 -0.79022,3.81 -2.70581,4.23334 -7.04497,1.54869 -13.0175,6.40644 -15.97377,12.98575 l -0.70909,1.57691 c -0.58914,1.31586 -1.88736,2.09903 -3.24203,2.09903"
         style="fill:#040606;fill-opacity:1;fill-rule:nonzero;stroke:none;stroke-width:0.0352778"
         id="path1314" />
      <path
         d="m 155.2637,216.567 c -0.25752,0 -0.51858,-0.0282 -0.77964,-0.0847 l -11.95872,-3.31549 C 128.96456,210.13998 119.49248,198.32192 119.49248,184.426 v -3.683 c 0,-1.96144 1.59103,-3.55247 3.55247,-3.55247 1.96497,0 3.55247,1.59103 3.55247,3.55247 v 3.683 c 0,10.54101 7.18609,19.51214 17.47662,21.80873 l 11.95872,3.31196 c 0.30577,-0.56712 3.12208,2.3248 2.69169,4.24039 -0.36688,1.65452 -1.83444,2.77988 -3.46075,2.77988"
         style="fill:#040606;fill-opacity:1;fill-rule:nonzero;stroke:none;stroke-width:0.0352778"
         id="path1316"
         sodipodi:nodetypes="cccssssscccc" />
      <path
         d="m 139.25156,198.5936 c -1.48872,0 -2.87514,-0.94192 -3.37255,-2.43064 -0.62089,-1.85914 0.38453,-3.86997 2.24719,-4.49439 l 5.91609,-1.97202 3.68872,-4.88825 c 1.32291,-1.44991 3.57011,-1.55575 5.02003,-0.23636 1.44991,1.32292 1.43468,3.46498 0.23283,5.02003 l -4.30961,5.57616 c -0.40922,0.44803 -0.92781,0.78317 -1.50283,0.97719 l -6.79803,2.26484 c -0.37042,0.127 -0.75142,0.18344 -1.12184,0.18344"
         style="fill:#3e5e5e;fill-opacity:1;fill-rule:nonzero;stroke:#040805;stroke-width:4.435;stroke-dasharray:none;stroke-opacity:1"
         id="path1318"
         sodipodi:nodetypes="ccccccscccc" />
      <path
         d="m 175.88048,188.86399 c -1.02658,0 -2.04611,-0.4445 -2.74814,-1.30175 -1.2453,-1.51695 -1.02305,-3.75708 0.49389,-4.99886 l 14.92956,-12.23434 c 1.51694,-1.2453 3.75708,-1.02305 5.00239,0.49389 1.24178,1.52048 1.01953,3.75709 -0.49742,5.00239 l -14.92955,12.23434 c -0.6597,0.53975 -1.45698,0.80433 -2.25073,0.80433"
         style="fill:#040606;fill-opacity:1;fill-rule:nonzero;stroke:none;stroke-width:0.0352778"
         id="path1320" />
      <path
         d="m 183.34526,202.1496 c -1.43228,0 -2.78342,-0.87489 -3.31964,-2.29305 -0.70203,-1.83092 0.21872,-3.88409 2.05317,-4.58259 l 16.78164,-6.3888 c 1.83797,-0.70556 3.88761,0.21872 4.58611,2.05316 0.6985,1.83445 -0.22225,3.88761 -2.05669,4.58611 l -16.78164,6.38881 c -0.41628,0.15875 -0.84314,0.23636 -1.26295,0.23636"
         style="fill:#040606;fill-opacity:1;fill-rule:nonzero;stroke:none;stroke-width:0.0352778"
         id="path1322" />
      <path
         d="m 201.37573,235.41655 h -43.4093 c -1.96498,0 -3.55248,-1.59103 -3.55248,-3.55247 0,-1.96145 1.5875,-3.55248 3.55248,-3.55248 h 43.4093 c 1.96145,0 3.55248,1.59103 3.55248,3.55248 0,1.96144 -1.59103,3.55247 -3.55248,3.55247"
         style="fill:#040606;fill-opacity:1;fill-rule:nonzero;stroke:none;stroke-width:0.0352778"
         id="path1324" />
      <path
         style="fill:#5c5960;fill-opacity:1;stroke:#000000;stroke-width:6.69999;stroke-linecap:round;stroke-linejoin:round;stroke-dasharray:none;stroke-opacity:1;paint-order:normal"
         d="m 28.434625,148.21583 h 56.989241 v 10.97478 H 40.842729 c -3.872095,0 -12.758876,-1.59592 -12.418883,-10.68657 z"
         id="path5065"
         sodipodi:nodetypes="cccssc" />
      <path
         style="fill:#040606;fill-opacity:1;fill-rule:nonzero;stroke:none;stroke-width:0.0352778"
         d="M 121.12937,152.90076 H 97.920121 c -1.96145,0 -3.55248,-1.5875 -3.55248,-3.55247 v -29.13945 c 0,-1.96144 1.59103,-3.55247 3.55248,-3.55247 h 23.209249 c 9.99067,0 18.12219,8.128 18.12219,18.1222 0,9.99419 -8.13152,18.12219 -18.12219,18.12219"
         id="path3510" />
      <path
         style="fill:#4d522c;fill-opacity:1;fill-rule:nonzero;stroke:none;stroke-width:0.0352778"
         d="m 101.47259,145.79582 h 19.65678 c 6.0713,0 11.01372,-4.94242 11.01372,-11.01725 0,-6.07484 -4.94242,-11.01725 -11.01372,-11.01725 h -19.65678 z"
         id="path1326" />
      <path
         style="fill:#42433b;fill-opacity:1;stroke:#000000;stroke-width:6.7;stroke-linecap:round;stroke-linejoin:round;stroke-dasharray:none;stroke-opacity:1;paint-order:normal"
         d="M -15.841886,128.07075 H 85.601648 v 20.26343 H -16.455967 c -4.204417,0 -3.053584,-20.26343 0.614081,-20.26343 z"
         id="path4337"
         sodipodi:nodetypes="sccss" />
      <path
         style="fill:#040606;fill-opacity:1;fill-rule:nonzero;stroke:none;stroke-width:0.0352778"
         d="M 150.3817,184.29552 H 85.788091 c -1.96497,0 -3.556,-1.5875 -3.556,-3.55248 V 128.2356 c 0,-1.96145 1.59103,-3.55248 3.556,-3.55248 h 12.13203 c 1.96144,0 3.552469,1.59103 3.552469,3.55248 v 16.92275 h 19.65678 c 6.0713,0 11.01372,-4.94242 11.01372,-11.01725 0,-1.52048 -0.32455,-3.01978 -0.96308,-4.45911 -0.48684,-1.10067 -0.38806,-2.37067 0.26811,-3.37962 0.65264,-1.00894 1.77447,-1.61925 2.97744,-1.61925 h 10.28348 c 1.84855,0 3.38666,1.41817 3.54189,3.25967 1.39347,16.75342 13.82183,24.76147 13.94883,24.84261 1.44639,0.91017 2.03906,2.72698 1.40758,4.318 l -9.92364,24.95551 c -0.53975,1.35113 -1.84502,2.23661 -3.302,2.23661"
         id="path3506" />
      <path
         style="fill:#42433b;fill-opacity:1;fill-rule:nonzero;stroke:none;stroke-width:0.0352778"
         d="m 89.340561,177.19057 h 58.631669 l 8.0257,-20.18594 c -4.12398,-3.3902 -12.24845,-11.62403 -14.43567,-25.21656 h -2.46592 c 0.10231,0.77964 0.15522,1.5628 0.15522,2.35303 0,9.99419 -8.13152,18.12219 -18.12219,18.12219 H 97.920121 c -1.96145,0 -3.55248,-1.5875 -3.55248,-3.55247 v -16.92275 h -5.02708 z"
         id="path1328" />
      <path
         d="M 114.68412,137.69357 H 97.920121 c -1.96145,0 -3.55248,-1.5875 -3.55248,-3.55247 0,-1.96145 1.59103,-3.55248 3.55248,-3.55248 h 16.763999 c 1.96497,0 3.556,1.59103 3.556,3.55248 0,1.96497 -1.59103,3.55247 -3.556,3.55247"
         style="fill:#040606;fill-opacity:1;fill-rule:nonzero;stroke:none;stroke-width:0.0352778"
         id="path1330" />
      <path
         d="m -4.7423039,125.25933 v -5.68796 c 0,-4.34269 3.531302,-7.87752 7.877532,-7.87752 h 1.97908 c 4.34269,0 7.8775299,3.53483 7.8775299,7.87752 0,1.96145 -1.59103,3.55248 -3.5524699,3.55248 -1.96498,0 -3.55248,-1.59103 -3.55248,-3.55248 0,-0.42686 -0.34925,-0.77258 -0.77258,-0.77258 h -1.97908 c -0.42687,0 -0.77259,0.34572 -0.77259,0.77258 v 5.68796 c 0,0.72561 -1.59103005,3.55247 -3.55247,3.55247 -1.96144,0 -3.552472,-1.5875 -3.552472,-3.55247 z"
         style="fill:#301700;fill-opacity:0.744728;fill-rule:nonzero;stroke:#000000;stroke-width:3.135;stroke-dasharray:none;stroke-opacity:1;paint-order:stroke fill markers"
         id="path1336"
         sodipodi:nodetypes="ssssssssssccs" />
      <path
         d="M 125.0064,168.2794 H 97.920121 c -1.96145,0 -3.55248,-1.59102 -3.55248,-3.55247 0,-1.96144 1.59103,-3.55247 3.55248,-3.55247 H 125.0064 c 1.96144,0 3.55247,1.59103 3.55247,3.55247 0,1.96145 -1.59103,3.55247 -3.55247,3.55247"
         style="fill:#040606;fill-opacity:1;fill-rule:nonzero;stroke:none;stroke-width:0.0352778"
         id="path1338" />
      <path
         style="fill:#35281c;fill-opacity:1;stroke:#000000;stroke-width:7.9;stroke-linecap:round;stroke-linejoin:round;stroke-dasharray:none;stroke-opacity:1;paint-order:stroke fill markers"
         d="m 176.03827,185.40995 13.68764,-11.30889"
         id="path2772"
         sodipodi:nodetypes="cc" />
      <path
         style="fill:#35281c;fill-opacity:1;stroke:#000000;stroke-width:7.9;stroke-linecap:round;stroke-linejoin:round;stroke-dasharray:none;stroke-opacity:1;paint-order:stroke fill markers"
         d="m 183.15387,198.92491 15.96938,-6.07541"
         id="path2774"
         sodipodi:nodetypes="cc" />
      <path
         style="fill:#35281c;fill-opacity:1;stroke:#000000;stroke-width:7.9;stroke-linecap:round;stroke-linejoin:round;stroke-dasharray:none;stroke-opacity:1;paint-order:stroke fill markers"
         d="m 158.60322,232.29252 h 44.28909"
         id="path2776" />
    </g>
  </g>
</svg>
