<?xml version="1.0" encoding="UTF-8" standalone="no"?>
<!-- Created with Inkscape (http://www.inkscape.org/) -->

<svg
   viewBox="0 0 457.38663 468.45384"
   version="1.1"
   id="svg1808"
   inkscape:version="1.2.1 (9c6d41e410, 2022-07-14)"
   sodipodi:docname="not-a-cop.svg"
   width="457.38663"
   height="468.45383"
   xmlns:inkscape="http://www.inkscape.org/namespaces/inkscape"
   xmlns:sodipodi="http://sodipodi.sourceforge.net/DTD/sodipodi-0.dtd"
   xmlns="http://www.w3.org/2000/svg"
   xmlns:svg="http://www.w3.org/2000/svg">
  <sodipodi:namedview
     id="namedview1810"
     pagecolor="#505050"
     bordercolor="#ffffff"
     borderopacity="1"
     inkscape:showpageshadow="0"
     inkscape:pageopacity="0"
     inkscape:pagecheckerboard="1"
     inkscape:deskcolor="#505050"
     inkscape:document-units="mm"
     showgrid="false"
     inkscape:zoom="1.6954702"
     inkscape:cx="103.51111"
     inkscape:cy="206.43241"
     inkscape:window-width="3440"
     inkscape:window-height="1328"
     inkscape:window-x="0"
     inkscape:window-y="34"
     inkscape:window-maximized="1"
     inkscape:current-layer="layer1" />
  <defs
     id="defs1805" />
  <g
     inkscape:label="Layer 1"
     inkscape:groupmode="layer"
     id="layer1"
     transform="translate(145.10614,81.504356)">
    <ellipse
       style="fill:none;fill-opacity:1;stroke:#3a0303;stroke-width:11.3386;stroke-linecap:butt;stroke-linejoin:round;stroke-dasharray:none;stroke-opacity:0.993333"
       id="path65680-7-5"
       cx="83.587173"
       cy="148.86971"
       rx="223.02402"
       ry="224.65938" />
    <circle
       style="fill:none;fill-opacity:1;stroke:#3a0303;stroke-width:64.252;stroke-linecap:butt;stroke-linejoin:round;stroke-dasharray:none;stroke-opacity:0.993333"
       id="path65680-7"
       cx="82.748672"
       cy="145.99994"
       r="195.37831" />
    <circle
       style="fill:none;fill-opacity:1;stroke:#e70909;stroke-width:46.4882;stroke-linecap:butt;stroke-linejoin:round;stroke-dasharray:none;stroke-opacity:1"
       id="path65680"
       cx="82.671082"
       cy="145.83754"
       r="195.37831" />
    <g
       id="g1361"
       transform="matrix(3.0500292,0,0,3.0194567,-167.13036,-166.25631)">
      <path
         style="opacity:1;fill:#113413;fill-opacity:0.791667;stroke:#0d180c;stroke-width:8.535;stroke-linecap:round;stroke-linejoin:round;stroke-dasharray:52.0635, 8.535;stroke-dashoffset:0;stroke-opacity:1;paint-order:normal"
         d="M 54.66426,129.59033 C 51.503265,117.74804 46.117053,107.29975 52.817794,91.040477 56.190889,82.85572 56.104653,74.136657 51.144138,63.921428 L 63.209735,51.614589 c 12.113451,5.590969 20.995695,2.358529 29.325438,-2.382615 8.512397,3.17548 15.291507,9.389455 29.467227,2.636938 l 12.23704,13.573137 c -8.30056,18.484984 -0.95413,25.069773 0.0196,28.430577 2.1758,7.509734 5.87536,23.440934 -1.7088,33.118564 -26.36621,33.64413 -75.881314,10.10938 -77.88598,2.59914 z"
         id="path5405"
         sodipodi:nodetypes="sscccccsss" />
      <path
         style="fill:#181a48;fill-opacity:1;fill-rule:nonzero;stroke:none;stroke-width:0.0352778"
         d="m 92.621391,127.76649 c -1.27,0 -2.44122,-0.67733 -3.07622,-1.778 l -7.36953,-12.76704 h -14.74611 c -1.27,0 -2.44122,-0.67733 -3.07622,-1.77448 -0.635,-1.10068 -0.635,-2.45534 0,-3.55249 l 7.37306,-12.7706 -7.37306,-12.770557 c -0.635,-1.097139 -0.635,-2.451806 0,-3.552472 0.635,-1.097139 1.80622,-1.774473 3.07622,-1.774473 h 14.74611 l 7.36953,-12.770556 c 1.27,-2.197806 4.88597,-2.197806 6.15597,0 l 7.369529,12.770556 h 14.74611 c 1.27,0 2.44123,0.677334 3.07623,1.774473 0.635,1.100666 0.635,2.455333 0,3.552472 l -7.37306,12.770557 7.37306,12.7706 c 0.635,1.09715 0.635,2.45181 0,3.55249 -0.635,1.09715 -1.80623,1.77448 -3.07623,1.77448 h -14.74611 l -7.369529,12.76704 c -0.635,1.10067 -1.80975,1.778 -3.07975,1.778"
         id="path5345" />
      <path
         style="fill:#f3ff36;fill-opacity:1;fill-rule:nonzero;stroke:#040805;stroke-width:0.0352778;stroke-opacity:1"
         d="m 73.581981,106.11647 h 10.6433 c 1.27,0 2.44122,0.67733 3.07623,1.77801 l 5.31988,9.21459 5.32342,-9.21459 c 0.635,-1.10068 1.80622,-1.77801 3.076219,-1.77801 h 10.63978 l -5.31989,-9.21459 c -0.635,-1.100667 -0.635,-2.455334 0,-3.556001 l 5.31989,-9.214556 h -10.63978 c -1.269999,0 -2.441219,-0.677333 -3.076219,-1.778 l -5.32342,-9.214556 -5.31988,9.214556 c -0.63501,1.100667 -1.80623,1.778 -3.07623,1.778 h -10.6433 l 5.32341,9.214556 c 0.635,1.100667 0.635,2.455334 0,3.556001 z"
         id="path1344" />
    </g>
    <g
       id="g1637"
       transform="matrix(0.74553995,-0.25707476,0.25707476,0.74553995,-396.97204,261.60717)">
      <rect
         style="fill:#615a4d;fill-opacity:1;stroke:#000000;stroke-width:26.035;stroke-linecap:round;stroke-linejoin:round;stroke-dasharray:none;stroke-opacity:1;paint-order:stroke fill markers"
         id="rect1462"
         width="206.88669"
         height="102.37727"
         x="454.53912"
         y="166.71327"
         rx="12.69983"
         ry="6.9784422" />
      <rect
         style="fill:#2e1a0f;fill-opacity:1;stroke:#000000;stroke-width:26.035;stroke-linecap:round;stroke-linejoin:round;stroke-dasharray:none;stroke-opacity:1;paint-order:stroke fill markers"
         id="rect1454"
         width="61.037102"
         height="161.48494"
         x="413.32654"
         y="138.47362"
         rx="12.69983"
         ry="6.9784427" />
      <rect
         style="fill:#2e1a0f;fill-opacity:1;stroke:#000000;stroke-width:26.035;stroke-linecap:round;stroke-linejoin:round;stroke-dasharray:none;stroke-opacity:1;paint-order:stroke fill markers"
         id="rect1454-3"
         width="61.037102"
         height="161.48494"
         x="643.76526"
         y="137.64508"
         rx="12.69983"
         ry="6.9784427" />
      <rect
         style="fill:#2e1a0f;fill-opacity:1;stroke:#000000;stroke-width:26.035;stroke-linecap:round;stroke-linejoin:round;stroke-dasharray:none;stroke-opacity:1;paint-order:stroke fill markers"
         id="rect1460"
         width="45.440372"
         height="440.28717"
         x="536.448"
         y="-212.85454"
         rx="12.69983"
         ry="6.9784422" />
      <rect
         style="fill:#2e1a0f;fill-opacity:1;stroke:#000000;stroke-width:26.035;stroke-linecap:round;stroke-linejoin:round;stroke-dasharray:none;stroke-opacity:1;paint-order:stroke fill markers"
         id="rect1458"
         width="79.397415"
         height="131.42969"
         x="518.43658"
         y="152.78963"
         rx="12.69983"
         ry="6.9784422" />
      <rect
         style="fill:#3e3012;fill-opacity:1;stroke:#000000;stroke-width:26.035;stroke-linecap:round;stroke-linejoin:round;stroke-dasharray:none;stroke-opacity:1;paint-order:stroke fill markers"
         id="rect1511"
         width="51.162979"
         height="39.775127"
         x="533.56042"
         y="-158.15416"
         rx="12.69983"
         ry="6.9784422" />
      <rect
         style="fill:#4a454a;fill-opacity:1;stroke:#000000;stroke-width:26.035;stroke-linecap:round;stroke-linejoin:round;stroke-dasharray:none;stroke-opacity:1;paint-order:stroke fill markers"
         id="rect1511-6"
         width="51.162979"
         height="39.775127"
         x="533.63776"
         y="57.249111"
         rx="12.69983"
         ry="6.9784422" />
    </g>
    <path
       style="fill:none;fill-opacity:1;stroke:#3a0303;stroke-width:10.2047;stroke-linecap:butt;stroke-linejoin:round;stroke-dasharray:none;stroke-opacity:0.993333"
       d="M -46.973298,44.556081 212.85927,306.2212"
       id="path65472-3"
       sodipodi:nodetypes="cc" />
    <path
       style="fill:none;fill-opacity:1;stroke:#3a0303;stroke-width:10.2047;stroke-linecap:butt;stroke-linejoin:round;stroke-dasharray:none;stroke-opacity:0.993333"
       d="M -61.542202,-23.201429 -51.092083,-31.49876 218.96625,247.18792"
       id="path65472-3-6"
       sodipodi:nodetypes="ccc" />
    <path
       style="fill:none;fill-opacity:1;stroke:#e90a0a;stroke-width:39.685;stroke-linecap:butt;stroke-linejoin:round;stroke-dasharray:none;stroke-opacity:0.99"
       d="M -67.694994,-12.308697 230.37771,291.18069"
       id="path65472"
       sodipodi:nodetypes="cc" />
  </g>
</svg>
